<svg width="166" height="36" viewBox="0 0 166 36" fill="none" xmlns="http://www.w3.org/2000/svg">
<path d="M1.19209e-07 21.48V6.92C1.19209e-07 2.57333 2.17333 0.399998 6.52 0.399998H17.4L19.76 2.24V4.84H6.64C5.46667 4.84 4.88 5.41333 4.88 6.56V21.84C4.88 22.9867 5.46667 23.56 6.64 23.56H19.76V26.16L17.4 28H6.52C2.17333 28 1.19209e-07 25.8267 1.19209e-07 21.48ZM24.6056 21.68V7H29.2856V22.08C29.2856 23.3067 29.899 23.92 31.1256 23.92H37.7256V7H42.4056V28H30.9256C26.7123 28 24.6056 25.8933 24.6056 21.68ZM48.2384 28V9.6C49.1984 7.86667 51.0384 7 53.7584 7H57.9584L60.0784 8.56V11.08H54.8384C53.9318 11.08 53.2918 11.3067 52.9184 11.76V28H48.2384ZM63.9416 28V9.6C64.9016 7.86667 66.7416 7 69.4616 7H73.6616L75.7816 8.56V11.08H70.5416C69.6349 11.08 68.9949 11.3067 68.6216 11.76V28H63.9416ZM79.4847 21.68V13.32C79.4847 9.10667 81.5914 7 85.8047 7H91.0047C95.1914 7 97.2847 9.10667 97.2847 13.32V19.24H84.1647V22.08C84.1647 23.3067 84.778 23.92 86.0047 23.92H96.4847V26.44L94.3647 28H85.8047C81.5914 28 79.4847 25.8933 79.4847 21.68ZM84.1647 15.6H92.6047V12.92C92.6047 11.6933 91.9914 11.08 90.7647 11.08H86.0047C84.778 11.08 84.1647 11.6933 84.1647 12.92V15.6ZM102.969 28V7H114.489C118.675 7 120.769 9.10667 120.769 13.32V28H116.089V12.92C116.089 11.6933 115.475 11.08 114.249 11.08H107.649V28H102.969ZM126.282 21.68V13.32C126.282 9.10667 128.388 7 132.602 7H140.162L142.282 8.56V11.08H132.802C131.575 11.08 130.962 11.6933 130.962 12.92V22.08C130.962 23.3067 131.575 23.92 132.802 23.92H142.282V26.44L140.162 28H132.602C128.388 28 126.282 25.8933 126.282 21.68ZM144.869 7.72L145.349 7H149.389L154.669 23.92H155.269L160.549 7H164.589L165.069 7.72L155.909 36H151.869L151.389 35.28L153.909 28H151.469L144.869 7.72Z" fill="#682798"/>
</svg>
